<svg height="223" viewBox="0 0 216 223" width="216" xmlns="http://www.w3.org/2000/svg"><g fill="none" fill-rule="evenodd"><g stroke="#000"><rect height="266" rx="26" stroke-width="4" width="197" x="54" y="2"/><path d="m134 1.58886719v142.41113281c0 15.463973-12.536027 28-28 28h-51.5878906" stroke-width="4"/><circle cx="153" cy="44" r="5.5" stroke-width="3"/><circle cx="97" cy="42" r="18.5" stroke-width="3"/><circle cx="97" cy="42" fill="#000" r="11.5" stroke-width="3"/><circle cx="97" cy="90" r="18.5" stroke-width="3"/><circle cx="97" cy="90" fill="#000" r="11.5" stroke-width="3"/><circle cx="97" cy="137" r="18.5" stroke-width="3"/><circle cx="97" cy="137" fill="#000" r="11.5" stroke-width="3"/></g><circle cx="96.906074" cy="42" fill="#0074c2" opacity=".3" r="20"/><circle cx="96.906074" cy="90" fill="#0074c2" opacity=".3" r="20"/><circle cx="96.906074" cy="137" fill="#0074c2" opacity=".3" r="20"/><g transform="translate(0 32)"><g fill="#0074c2"><circle cx="10" cy="10" r="10"/><g><circle cx="27" cy="10" r="1"/><circle cx="51" cy="10" r="1"/><circle cx="35" cy="10" r="1"/><circle cx="59" cy="10" r="1"/><circle cx="43" cy="10" r="1"/><circle cx="67" cy="10" r="1"/></g><g><circle cx="27" cy="58" r="1"/><circle cx="51" cy="58" r="1"/><circle cx="35" cy="58" r="1"/><circle cx="59" cy="58" r="1"/><circle cx="43" cy="58" r="1"/><circle cx="67" cy="58" r="1"/></g><g><circle cx="27" cy="105" r="1"/><circle cx="51" cy="105" r="1"/><circle cx="35" cy="105" r="1"/><circle cx="59" cy="105" r="1"/><circle cx="43" cy="105" r="1"/><circle cx="67" cy="105" r="1"/></g></g><path d="m11.512 16v-11.68h-3.6v2.032h1.424v9.648z" fill="#fff" fill-rule="nonzero"/><circle cx="10" cy="58" fill="#0074c2" r="10"/><circle cx="10" cy="105" fill="#0074c2" r="10"/><path d="m13.68 63.84v-2.08h-5.264c0-.2773333.06933333-.5333333.208-.768s.32-.4586667.544-.672.48-.4186667.768-.616.5813333-.3973333.88-.6c.352-.2346667.7013333-.48 1.048-.736s.6586667-.536.936-.84.5013333-.64.672-1.008.256-.7813333.256-1.24-.0853333-.888-.256-1.288-.4213333-.7466667-.752-1.04-.728-.5253333-1.192-.696-.9946667-.256-1.592-.256c-.94933333 0-1.752.232-2.408.696s-1.16533333 1.096-1.528 1.896l1.872.944c.20266667-.4906667.46666667-.8906667.792-1.2s.744-.464 1.256-.464c.5226667 0 .92.136 1.192.408s.408.6.408.984c0 .224-.0613333.4346667-.184.632s-.2853333.3893333-.488.576-.4373333.3733333-.704.56c-.26666667.1866667-.544.3813333-.832.584-.36266667.2453333-.728.5066667-1.096.784s-.69866667.584-.992.92-.53066667.7066667-.712 1.112-.272.8586667-.272 1.36v2.048z" fill="#fff" fill-rule="nonzero"/><path d="m9.744 111c.6293333 0 1.1866667-.090667 1.672-.272s.8906667-.429333 1.216-.744.5733333-.688.744-1.12.256-.898667.256-1.4c0-.608-.136-1.136-.408-1.584s-.648-.810667-1.128-1.088c.416-.298667.7413333-.658667.976-1.08s.352-.898667.352-1.432c0-.501333-.0906667-.954667-.272-1.36s-.4373333-.749333-.768-1.032c-.3306667-.2826667-.7306667-.5013333-1.2-.656s-.9866667-.232-1.552-.232c-.768 0-1.47466667.1813333-2.12.544s-1.13866667.864-1.48 1.504l1.856.96c.18133333-.341333.408-.613333.68-.816s.63733333-.304 1.096-.304c.5013333 0 .9013333.128 1.2.384s.448.597333.448 1.024c0 .416-.1493333.778667-.448 1.088s-.768.464-1.408.464h-1.2v2h1.2c.5973333 0 1.08.146667 1.448.44s.552.685333.552 1.176-.1626667.872-.488 1.144-.7386667.408-1.24.408c-.36266667 0-.69866667-.082667-1.008-.248s-.58666667-.434667-.832-.808l-1.888 1.408c.50133333.586667 1.064 1.005333 1.688 1.256s1.30933333.376 2.056.376z" fill="#fff" fill-rule="nonzero"/></g></g></svg>