<svg height="80" viewBox="0 0 80 80" width="80" xmlns="http://www.w3.org/2000/svg"><g fill="none" fill-rule="evenodd"><rect fill="#000" height="43" rx="4" width="21" x="30" y="23"/><path d="m50 4c.5522847 0 1.0522847.22385763 1.4142136.58578644.3619288.36192881.5857864.86192881.5857864 1.41421356v8h5c.8284271 0 1.5784271.3357864 2.1213203.8786797.5428933.5428932.8786797 1.2928932.8786797 2.1213203v56c0 .8284271-.3357864 1.5784271-.8786797 2.1213203-.5428932.5428933-1.2928932.8786797-2.1213203.8786797h-33c-.8284271 0-1.5784271-.3357864-2.1213203-.8786797-.5428933-.5428932-.8786797-1.2928932-.8786797-2.1213203v-56c0-.8284271.3357864-1.5784271.8786797-2.1213203.5428932-.5428933 1.2928932-.8786797 2.1213203-.8786797h5v-8c0-.55228475.2238576-1.05228475.5857864-1.41421356.3619289-.36192881.8619289-.58578644 1.4142136-.58578644z" stroke="#000" stroke-width="6"/></g></svg>