<svg height="80" viewBox="0 0 80 80" width="80" xmlns="http://www.w3.org/2000/svg"><g fill="none" fill-rule="evenodd"><path d="m30.7142857 27.8690919c-.0051649 6.2755379-3.9355075 11.8976542-9.8816816 14.1351179-5.946174 2.2374638-12.67585531.6265683-16.91975664-4.0501114s-5.12248866-11.4499178-2.2089432-17.0292671c2.55550339-4.9568062 13.05346334-20.56068989 13.05346334-20.56068989.1142237-.22330003.3462446-.36414141.5998834-.36414141.2536389 0 .4856597.14084138.5998834.36414141 0 0 10.461967 15.58022359 13.0174704 20.46604919 1.1467267 2.1737678 1.7435628 4.5886451 1.7396809 7.0389013z" stroke="#12100b" stroke-width="3.5" transform="translate(23.642857 9)"/><path d="m25.3353516 73v-12.7265625h-2.4257813v12.7265625zm5.403125 0v-3.9726562h2.1796875c1.3945312 0 2.4726562-.3837891 3.234375-1.1513672.7617187-.7675782 1.1425781-1.8486328 1.1425781-3.2431641 0-1.3828125-.3691406-2.4550781-1.1074219-3.2167969-.7382812-.7617187-1.7871094-1.1425781-3.1464844-1.1425781h-4.7285156v12.7265625zm2.3027343-6.1347656h-2.3027343v-4.4296875h2.1796875c1.2539062 0 1.8808593.75 1.8808593 2.25 0 1.453125-.5859375 2.1796875-1.7578125 2.1796875zm9.7625 6.3632812c.8671875 0 1.6259766-.1787109 2.2763672-.5361328s1.1542969-.8642578 1.5117188-1.5205078c.3574218-.65625.5361328-1.4179688.5361328-2.2851562 0-.8203126-.1552735-1.538086-.4658203-2.1533204-.3105469-.6152343-.7529297-1.0927734-1.3271485-1.4326172-.5742187-.3398437-1.2363281-.5097656-1.9863281-.5097656-.3984375 0-.8027344.046875-1.2128906.140625l.5976562-.6679687 2.5664063-2.7597657-1.8808594-1.4589843-2.5136719 2.9003906c-.9375 1.078125-1.5908203 2.0566406-1.9599609 2.9355469-.3691406.8789062-.5537109 1.8398437-.5537109 2.8828125 0 .890625.1816406 1.6728515.5449218 2.3466797.3632813.6738281.8789063 1.1953125 1.546875 1.5644531.6679688.3691406 1.4414063.5537109 2.3203125.5537109zm0-2.0917968c-.6328125 0-1.125-.2080079-1.4765625-.6240235s-.5273437-.9990234-.5273437-1.7490234c0-.3164063.0351562-.6328125.1054687-.9492188.0703125-.3164062.1640625-.5917969.28125-.8261719.5273438-.1992187 1.0195313-.2988281 1.4765625-.2988281.6445313 0 1.1455078.1962891 1.5029297.5888672s.5361328.9462891.5361328 1.6611328c0 .6914063-.1669922 1.2304688-.5009765 1.6171875-.3339844.3867188-.7998047.5800782-1.397461.5800782zm10.2898438 2.0917968c.890625 0 1.6757812-.149414 2.3554687-.4482422.6796875-.2988281 1.2041016-.7236328 1.5732422-1.274414.3691406-.5507813.553711-1.1835938.553711-1.8984375 0-.7617188-.234375-1.4414063-.703125-2.0390625-.46875-.5976563-1.0898438-1.0136719-1.8632813-1.2480469.6445313-.2226563 1.1601563-.6005859 1.546875-1.1337891.3867188-.5332031.5800781-1.1279296.5800781-1.7841796 0-.6679688-.1669922-1.256836-.5009765-1.7666016-.3339844-.5097656-.8056641-.9023438-1.4150391-1.1777344s-1.3183594-.4130859-2.1269531-.4130859c-.8085938 0-1.5146485.1376953-2.1181641.4130859s-1.0722656.6679688-1.40625 1.1777344-.5009765 1.0986328-.5009765 1.7666016c0 .65625.1904296 1.2597656.571289 1.8105468.3808594.5507813.8876953.9375 1.5205078 1.1601563-.7617187.28125-1.3740234.7177734-1.836914 1.3095703-.4628907.5917969-.694336 1.2333984-.694336 1.9248047 0 .7148437.1845703 1.3476562.553711 1.8984375.3691406.5507812.890625.9755859 1.5644531 1.274414.6738281.2988282 1.4560547.4482422 2.3466797.4482422zm.0878906-7.7695312c-.5390625-.1757813-.9638672-.4248047-1.2744141-.7470703-.3105468-.3222657-.4658203-.6826172-.4658203-1.0810547 0-.4921875.1464844-.8789063.4394532-1.1601563.2929687-.28125.6972656-.421875 1.2128906-.421875.5273437 0 .9375.140625 1.2304687.421875.2929688.28125.4394532.6679688.4394532 1.1601563 0 .4101562-.1376954.7763672-.413086 1.0986328s-.665039.5654297-1.1689453.7294922zm-.0878906 5.7480468c-.6445313 0-1.1513672-.1552734-1.5205078-.4658203-.3691407-.3105468-.553711-.7412109-.553711-1.2919921 0-.4921876.1757813-.9316407.5273438-1.3183594.3515625-.3867188.84375-.6855469 1.4765625-.8964844.6796875.2460938 1.2099609.5654297 1.5908203.9580078s.5712891.8115234.5712891 1.256836c0 .5507812-.1875.9814453-.5625 1.2919921-.375.3105469-.8847657.4658203-1.5292969.4658203z" fill="#000" fill-rule="nonzero"/></g></svg>